<?xml version="1.0" encoding="UTF-8"?>
<!-- Created with Inkscape by VulcanSphere (https://www.inkscape.org/ and https://vulcansphere.com) -->
<svg id="svg1" width="1195.9" height="536.21" version="1.1" viewBox="0 0 1195.9 536.21" xmlns="http://www.w3.org/2000/svg">
 <title id="title1">Leo/need</title>
 <desc id="desc1">An all-girl pop-rock band in Project Sekai: Colorful Stage feat. Hatsune Miku</desc>
 <g id="g1" transform="translate(-2.4833 526.13)">
  <g id="g17">
   <path id="path1" d="m499.45-141.95-0.97075-87.656 32.866-32.968 0.66667 9.3048 0.66666 9.3048 8.8504-5.7029c13.269-8.5499 24.221-11.774 42.483-12.505 18.369-0.7357 27.225 1.1505 44 9.3712 19.765 9.6858 37.497 30.292 43.913 51.031 2.8519 9.2174 3.5639 9.7975 4.6857 3.8179 2.4335-12.972 14.106-31.608 27.044-43.18 8.6622-7.7476 25.055-16.336 37.024-19.397 12.013-3.0723 31.842-2.7308 43.635 0.75155 16.181 4.778 27.195 11.311 39.127 23.205 11.901 11.865 17.4 20.524 22.31 35.131l3.2722 9.7352 0.94656-5.0685c1.4467-7.7465 8.9298-22.799 15.92-32.023 11.287-14.895 29.466-26.79 48.315-31.615 13.174-3.3721 32.744-2.7999 46.072 1.347 28.843 8.9746 51.09 30.967 59.799 59.115l2.237 7.23 2.347-7.228c4.6125-14.205 11.572-25.482 22.666-36.727 8.977-9.1 12.712-11.801 23.353-16.888 15.234-7.2818 22.656-8.9461 39.896-8.9461 10.436 0 15.232 0.6944 23.601 3.4178 10.248 3.3349 26.249 11.346 27.857 13.948 2.825 4.5709 3.3133-2.5601 3.3133-48.387v-49.688l31.683-31.6 0.624 91.821 0.6241 91.821-17.823 18c-16.39 16.553-17.741 17.625-16.799 13.333 0.5632-2.5667 1.0031-10.14 0.9776-16.83-0.043-11.311-0.3952-12.869-5.0212-22.229-10.383-21.008-31.587-33.109-54.638-31.18-19.315 1.6162-37.889 15.116-46.673 33.922-3.8108 8.1588-4.2002 10.207-4.2422 22.317-0.043 12.286 0.2892 14.041 4.2224 22.345 11.108 23.45 35.107 36.744 59.301 32.847 4.5298-0.72949 8.8798-1.6755 9.6667-2.1023s-6.2827 7.0254-15.71 16.56l-17.141 17.336-5.2885-1.1882c-29.439-6.6144-56.306-32.48-64.554-62.148l-2.3122-8.3164h-85.521l31.917-32h10.354c5.6948 0 10.354-0.31711 10.354-0.70469s-1.7601-4.1915-3.9114-8.4532c-13.366-26.479-44.61-37.763-71.189-25.712-16.014 7.2611-26.005 18.062-31.635 34.203-2.2456 6.4368-2.6966 10.371-2.3082 20.136 0.41633 10.466 1.0859 13.361 4.8661 21.04 7.7912 15.826 24.579 28.803 39.915 30.853 10.906 1.4581 10.953 1.2288-3.1258 15.36-7.2755 7.3029-13.839 13.278-14.587 13.277-3.1647-2e-3 -18.774-8.4196-26.175-14.114-13.584-10.452-23.009-24.052-29.336-42.329l-3.7698-10.889-85.455-1.3333 31.378-31.241 21.792-0.75901-3.3354-7.0087c-11.686-24.555-40.502-37.631-65.668-29.799-21.515 6.6961-36.527 24.185-40.448 47.12-4.575 26.762 17.079 57.335 43.66 61.643 12.951 2.0991 13.07 0.84757-1.4689 15.451-7.2588 7.291-14.006 13.257-14.994 13.258-0.98803 1e-3 -6.5061-2.4483-12.262-5.4431-18.933-9.8502-34.305-27.07-41.996-47.046l-3.1478-8.1754-0.1304 33.375-32 31.917-0.0158-47.979c-0.0118-35.764-0.4692-49.676-1.7966-54.646-5.3618-20.072-20.471-34.908-40.854-40.114-25.441-6.4983-52.453 7.1135-64.424 32.464l-4.2422 8.9835-0.39176 50.746-0.39175 50.746-31.474 31.392zm-425.44-90.739c-30.351-6.3783-56.186-30.798-66.816-63.154-2.1768-6.6262-2.4537-14.266-2.8716-79.239l-0.46251-71.906 32.817-32.897 0.66667 87.688s-0.0077 57.423 0.66667 87.688c0.02384 1.0702 11.773 34.484 44.515 40.648 6.3634 1.1979 117.48 2.0613 117.48 0.9129 0-0.2415-2.6273-5.0494-5.8384-10.684-9.6993-17.02-12.169-26.576-12.117-46.877 0.0396-15.323 0.45396-18.468 3.5723-27.113 12.838-35.592 42.948-58.011 80.422-59.878 11.034-0.54974 15.218-0.15997 23.925 2.2288 31.271 8.5791 53.74 29.599 63.93 59.808l3.019 8.9497 0.96555-5.3312c0.53105-2.9321 3.4076-10.431 6.3923-16.664 7.0476-14.718 23.394-31.541 37.996-39.103 20.525-10.63 42.583-12.982 63.918-6.8146 16.785 4.8518 27.315 11.138 39.845 23.787 11.424 11.533 18.28 23.21 22.69 38.644l2.2415 7.8468-17.542 17.487c-10.879 10.844-17.06 16.187-16.274 14.066 2.3653-6.3773 3.0991-17.992 1.6406-25.969-4.332-23.693-22.118-41.34-46.369-46.005-22.587-4.3453-48.013 9.3322-59.304 31.902-3.8475 7.6904-4.4765 10.405-4.8906 21.104-0.77623 20.053 5.9 34.905 21.087 46.909 12.744 10.074 31.891 14.346 46.536 10.385l7.1779-1.9413-34.72 34.72-9.8179-2.9512c-14.786-4.4446-25.876-11.19-37.165-22.607-10.672-10.792-18.62-23.937-22.618-37.407l-2.1923-7.3864-42.921-0.3518c-23.607-0.19349-42.921-0.80328-42.921-1.3551 0-0.55181 6.7594-7.7435 15.021-15.982l15.021-14.978h10.979c12.715 0 12.909-0.2803 7.535-10.885-10.184-20.098-36.986-33.593-58.039-29.222-19.091 3.9634-34.067 15.653-41.972 32.762-10.088 21.834-6.3454 43.81 10.492 61.613 7.2368 7.6518 19.095 14.232 28.296 15.701 13.049 2.084 13.382 0.60399-4.0828 18.115l-15.875 15.917-77.354-0.1087c-62.645-0.088-79.129-0.48168-86.688-2.0701z" fill="#4446f0"/>
   <path id="path3" d="m10.774-285.35 27.311-22.833-1.4104-171.95-32.881 32.285s-4.0957 102.4 2.1932 147.91c0.7581 5.4859 4.7869 14.585 4.7869 14.585z" stroke-width="2.124"/>
   <path id="path4" d="m222.87-348.26c-2.5188 4.5274-4.4519 7.7888-4.4519 7.7888l-36.634 30.406s-0.70853-22.387 1.2528-29.691c3.1228-11.63 7.7849-23.365 14.908-33.074 6.3024-8.5899 15.125-15.234 24.054-21.047 6.6387-4.322 13.994-7.6387 21.548-10.022 7.2808-2.2973 14.923-4.3376 22.55-4.009 9.1751 0.39538 10.619-0.17643 18.213 1.2312 3.8634 0.71618-0.19402-0.65282 8.8171 2.2838l-26.988 29.1c-11.524 2.2433-12.36 2.7809-12.742 2.8943-1.8063 0.53683 0.30497-0.14543-3.4611 1.2638-3.0215 1.1306-4.9696 2.1697-7.6421 3.8172-2.2482 1.386-4.5144 3.1927-6.6398 4.7606-4.1844 3.0869-4.6294 3.8969-6.264 5.8882-2.8977 3.5299-4.0819 4.5738-6.5208 8.4089z" stroke-width="2.124"/>
   <path id="path5" d="m397.2-348.14c-2.5188 4.5274-5.4831 8.5076-5.4831 8.5076l-35.209 37.824s-1.6116-27.562-0.20373-34.993c2.237-11.807 8.8479-26.2 15.971-35.909 6.3024-8.5899 15.125-16.297 24.054-22.11 6.6387-4.322 13.994-7.6387 21.548-10.022 7.2808-2.2973 14.916-2.9897 22.55-2.9459 8.8619 0.0509 10.181-0.0825 18.213 1.2312 3.8777 0.63422-0.19402-0.65282 8.8171 2.2838l-26.988 29.1c-11.524 2.2433-12.36 2.7809-12.742 2.8943-1.8063 0.53683 0.30497-0.14543-3.4611 1.2638-3.0215 1.1306-4.9696 2.1697-7.6421 3.8172-2.2482 1.386-4.5144 3.1927-6.6398 4.7606-4.1844 3.0869-4.6294 3.8969-6.264 5.8882-2.8977 3.5299-4.0819 4.5738-6.5208 8.4089z" stroke-width="2.124"/>
   <path id="path6" d="m715.56-203.34c-2.5188 4.5274-4.4519 7.7888-4.4519 7.7888l-35.864 38.292s-1.9874-27.312-0.57957-34.743c2.237-11.807 8.8479-26.2 15.971-35.909 6.3024-8.5899 15.125-16.297 24.054-22.11 6.6387-4.322 13.994-7.6387 21.548-10.022 7.2808-2.2973 14.916-2.9897 22.55-2.9459 8.8619 0.0509 10.181-0.0825 18.213 1.2312 3.8777 0.63422-0.19402-0.65282 8.8171 2.2838l-26.988 29.1c-11.524 2.2433-12.36 2.7809-12.742 2.8943-1.8063 0.53683 0.30497-0.14543-3.4611 1.2638-3.0215 1.1306-4.9696 2.1697-7.6421 3.8172-2.2482 1.386-4.5144 3.1927-6.6398 4.7606-4.1844 3.0869-4.6294 3.8969-6.264 5.8882-2.8977 3.5299-4.0819 4.5738-6.5208 8.4089z" stroke-width="2.124"/>
   <path id="path7" d="m889.45-203.34c-2.5188 4.5274-4.4519 7.7888-4.4519 7.7888l-35.864 38.292s-1.9874-27.312-0.57957-34.743c2.237-11.807 8.8479-26.2 15.971-35.909 6.3024-8.5899 15.125-16.297 24.054-22.11 6.6387-4.322 13.994-7.6387 21.548-10.022 7.2808-2.2973 14.916-2.9897 22.55-2.9459 8.8619 0.0509 10.181-0.0825 18.213 1.2312 3.8777 0.63422-0.19402-0.65282 8.8171 2.2838l-26.988 29.1c-11.524 2.2433-12.36 2.7809-12.742 2.8943-1.8063 0.53683 0.30497-0.14543-3.4611 1.2638-3.0215 1.1306-4.9696 2.1697-7.6421 3.8172-2.2482 1.386-4.5144 3.1927-6.6398 4.7606-4.1844 3.0869-4.6294 3.8969-6.264 5.8882-2.8977 3.5299-4.0819 4.5738-6.5208 8.4089z" stroke-width="2.124"/>
   <path id="path8" d="m1063-203.34c-2.5188 4.5274-5.2644 8.4763-5.2644 8.4763l-35.443 36.388s-1.5961-26.095-0.1882-33.526c2.237-11.807 8.8479-26.2 15.971-35.909 6.3024-8.5899 15.125-16.297 24.054-22.11 6.6387-4.322 13.994-7.6387 21.548-10.022 7.2808-2.2973 14.916-2.9897 22.55-2.9459 8.862 0.0509 10.181-0.0825 18.213 1.2312 3.8777 0.63422-0.194-0.65282 8.8171 2.2838l-27.02 29.315c-5.6716 0.46481-10.91 2.112-16.147 4.0918-3.0215 1.1306-4.9696 2.1697-7.6421 3.8172-2.2482 1.386-4.5145 3.1927-6.6398 4.7606-4.1845 3.0869-4.6528 3.7485-6.2874 5.7397-2.8977 3.5299-4.0819 4.5738-6.5208 8.4089z" stroke-width="2.124"/>
   <path id="path9" d="m538.48-199.03c-2.342 4.439-5.7144 11.741-5.7144 11.741l-33.52 30.648-0.73406-35.347-0.35192-38.482 33.376-32.337 1.2607 14.937s17.618-9.6716 25.172-12.055c7.2808-2.2973 14.916-2.9897 22.55-2.9459 5.9722 0.0343 20.028 0.34881 27.518 2.324l-25.727 30.791c-12.648 2.4621-14.309 3.6464-16.64 4.7206-2.9026 1.3377-6.2364 3.2092-8.7671 5.0672-2.1857 1.6047-5.0521 3.7141-6.8754 5.6249-3.6304 3.8047-4.7052 4.909-6.2198 6.993-2.679 3.6861-3.2068 4.3008-5.3276 8.3205z" stroke-width="2.124"/>
   <path id="path10" d="m209.8-230.51 28.263-0.01 17.616-17.232s7.3809-7.7112 11.956-12.817c0.67196-0.74991-0.26792-2.2076-1.0607-2.8284-1.6394-1.2839-4.6486-0.77118-6.7043-1.1027-1.4279-0.2303-2.3439-0.16119-3.75-0.5-1.9753-0.47596-4.3158-1.2528-6.2344-1.9219-1.4103-0.49182-2.4625-0.92365-3.7812-1.625-0.87752-0.46651-2.4844-1.4529-2.4844-1.4529z" fill="#38e2ba" stroke-width="2.124"/>
   <path id="path11" d="m267.64-260.57c0.67196-0.74991-0.26792-2.2076-1.0607-2.8284-1.6394-1.2839-4.6486-0.77118-6.7043-1.1027-1.4279-0.2303-2.3439-0.16119-3.75-0.5-1.9753-0.47596-4.3158-1.2528-6.2344-1.9219-1.4103-0.49182-2.4625-0.92365-3.7812-1.625z" fill="#38e2ba" stroke-width="2.124"/>
   <path id="path12" d="m1163.7-157.68c0.8055 0.12574 3.182-2.1213 3.182-2.1213l8.8576-8.4957 22.609-22.794-0.1768-28.461-34.471 31.466s0.5877 1.9125 0.6368 2.8831c0.077 1.5259 0.1358 2.8671 0.1846 4.2817 0.037 1.0752 0.073 2.0488 0.08 3.1246 0.01 1.0166 0.01 2.0485 0 3.065-0.016 1.149-0.026 2.2907-0.06 3.4393-0.028 0.95814-0.061 1.9384-0.1013 2.8961-0.032 0.76591-0.08 1.5251-0.1271 2.2903-0.043 0.69356-0.076 1.3701-0.1455 2.0615-0.064 0.63451-0.1256 1.2667-0.1976 1.9004-0.06 0.53018-0.1321 1.064-0.2158 1.591-0.08 0.5051-0.1871 0.99804-0.2703 1.5026-0.039 0.23436-0.1446 0.4764-0.1075 0.71102 0.02 0.12771 0.036 0.28696 0.089 0.42131 0.047 0.11894 0.126 0.22005 0.239 0.23769z" fill="#38e2ba" stroke-width="2.124"/>
   <g id="g15" transform="translate(-4,1260)">
    <g id="g16" transform="translate(7.7782 -527.5)">
     <path id="path2" d="m328.56-723.21c-0.49373-2.5667-2.423-16.945-4.2873-31.953s-3.5423-27.438-3.7288-27.625c-0.18654-0.18653-8.9141 5.3859-19.395 12.383-10.481 6.9973-19.262 12.515-19.515 12.263s5.8585-8.1615 13.581-17.575c7.7222-9.4134 13.535-17.563 12.918-18.11-0.61731-0.54714-9.6788-2.0593-20.137-3.3604-28.983-3.6058-29.821-3.9223-15.652-5.9125 30.819-4.3292 35.4-5.066 36.149-5.8146 0.4406-0.4406-5.5178-8.4822-13.241-17.87-7.7231-9.388-13.843-17.268-13.6-17.511 0.24317-0.24317 9.0478 5.3034 19.566 12.326 10.518 7.0223 19.288 12.275 19.489 11.673s2.0897-14.742 4.1979-31.423 4.0848-30.58 4.3927-30.888 1.6654 8.8806 3.0167 20.419c3.5973 30.715 2.5106 29.514 13.406 14.817 26.831-36.195 55.138-67.889 106.52-119.27 41.623-41.621 64.174-62.61 98.769-91.93 91.17-77.27 191.64-143.01 267.85-175.27 54.73-23.166 102.65-31.987 124.26-17.798 25.915 17.011 21.499 58.63-12.112 114.14-8.0302 13.262-20.525 31.797-21.435 31.797-0.80041 0 1.8001-4.6579 9.2547-16.576 21.517-34.402 33.991-69.225 32.677-91.224-1.3706-22.942-14.557-33.86-40.873-33.843-73.27 0.049-222.56 86.663-356.96 206.13-60.663 53.925-130.68 124.78-169.96 171.98-13.115 15.762-31.124 39.361-30.037 39.361 0.4216 0 6.2935-3.7074 13.049-8.2386 6.7552-4.5312 11.62-7.3812 10.811-6.3333-0.80918 1.0479-7.5646 9.3784-15.012 18.512-9.1345 11.203-12.995 16.888-11.862 17.471 0.92327 0.47539 12.029 2.2288 24.679 3.8964 12.65 1.6676 23 3.1756 23 3.351s-10.35 1.6789-23 3.341c-12.65 1.6621-23.736 3.4083-24.637 3.8805-1.0796 0.56636 3.1051 6.6548 12.298 17.893 7.664 9.3688 14.321 17.659 14.793 18.423 0.47217 0.764-8.2662-4.7135-19.418-12.172-11.152-7.4587-20.428-13.365-20.613-13.126-0.18507 0.23935-2.1302 14.835-4.3226 32.435-2.9029 23.304-4.2301 30.732-4.8838 27.333z" fill="#3320bd"/>
     <path id="path13" transform="matrix(1.225 0 0 1.225 -149.45 255.68)" d="m857.5-1087.9-1.8707-8.2101-8.2543-1.6649 8.2101-1.8707 1.6649-8.2543 1.8707 8.2101 8.2543 1.6649-8.2101 1.8707z" fill="#00d2bf" stroke-width="2.124"/>
     <path id="path14" transform="matrix(2.35 0 0 2.35 -1137 1518)" d="m857.5-1087.9-1.8707-8.2101-8.2543-1.6649 8.2101-1.8707 1.6649-8.2543 1.8707 8.2101 8.2543 1.6649-8.2101 1.8707z" fill="#00d2bf" stroke-width="2.124"/>
     <path id="path15" transform="matrix(.72659 0 0 .72659 234.94 -239.9)" d="m857.5-1087.9-1.8707-8.2101-8.2543-1.6649 8.2101-1.8707 1.6649-8.2543 1.8707 8.2101 8.2543 1.6649-8.2101 1.8707z" fill="#00d2bf" stroke-width="2.124"/>
     <path id="path16" d="m766.13-1208.2c-0.15764-0.3135 27.986-19.114 77.905-35.546 12.531-4.1251 25.452-8.9711 40.004-11.758 27.076-5.185 46.439-3.4316 55.649 1.2698 4.9605 2.5325 14.36 8.4433 18.885 23.55 0 0 1.7045 9.1995 1.5314 12.546-0.22461 4.342-0.21751 8.5563-0.62955 13.279-0.73575 8.4335-5.6952 23.367-9.526 31.541-10.381 22.152-13.313 25.684-20.327 38.263-2.4249 4.3485-8.8366 13.806-13.907 21.169-3.6488 5.2985-6.7772 9.3035-7.0267 9.3035 0.72261-5.045 5.1478-9.4493 7.8496-13.921 2.9306-4.7064 6.7015-11.445 10.712-18.887 4.6964-8.7153 10.159-18.288 13.027-27.704 2.5156-8.2602 6.4898-16.865 8.0672-24.576 3.884-18.987 0.78369-32.225-0.3105-36.732-1.1022-4.5401-2.8334-7.9136-5.3972-10.595-3.6364-3.8034-9.1689-6.1827-18.864-8.2511-18.249-3.8933-58.49 3.1168-99.666 22.687-56.595 26.898-71.994 35.202-71.994 35.202z" fill="#00d0be" stroke-width=".57762"/>
     <path id="path17" d="m594.04-1075.8s41.758-32.889 50.244-39.253c3.7712-2.8284 10.699-7.6354 14.496-10.43 4.2149-3.1022 9.108-6.9557 13.435-9.8995 5.7843-3.9352 11.836-8.3475 17.678-12.198 6.6593-4.3892 13.161-9.0134 19.799-13.435 6.0937-4.0593 12.009-7.7329 18.197-11.646 4.2026-2.6572 8.6392-5.6162 12.915-8.1532 3.8595-2.2898 11.667-6.7175 11.667-6.7175l13.945-20.994s-3.3608 1.7133-4.9712 2.6508c-1.8203 1.0597-3.6064 2.0812-5.4743 3.0545-1.8861 0.9827-3.7209 2.0612-5.5625 3.125-2.0141 1.1635-4.0707 2.2507-6.0884 3.4078-2.3135 1.3268-4.5981 2.7029-6.9116 4.0297-2.0177 1.1571-4.0017 2.3721-6 3.5625-1.8141 1.0807-3.6294 2.1594-5.4375 3.25-2.4017 1.4487-4.799 2.9047-7.1875 4.375-2.048 1.2606-4.0851 2.5388-6.125 3.8125-1.8975 1.1848-3.7951 2.3696-5.6875 3.5625-1.941 1.2236-3.8803 2.4501-5.8125 3.6875-2.0682 1.3245-4.1364 2.6493-6.1875 4-1.718 1.1313-3.3792 2.1759-5.0938 3.3125-1.8061 1.1973-3.6562 2.5-5.4688 3.6875s-3.6242 2.3762-5.4375 3.5625c-1.5618 1.0218-3.15 2.0044-4.6875 3.0625-3.1586 2.1739-6.253 4.2143-9.3788 6.4353-3.8643 2.7458-7.4716 4.8205-11.35 7.5458-4.254 2.989-4.8261 3.7208-9.0404 6.7656-3.3818 2.4433-3.87 2.663-7.2013 5.1747-2.2802 1.7193-5.2555 3.9083-5.2555 3.9083l-15.156 18.915z" fill="#007dc3" stroke-width="2.124"/>
    </g>
   </g>
  </g>
 </g>
</svg>
